{
	"asset":{
		"generator":"Khronos glTF Blender I/O v4.2.57",
		"version":"2.0"
	},
	"scene":0,
	"scenes":[
		{
			"name":"Scene",
			"nodes":[
				0,
				1,
				2,
				3,
				4,
				5,
				6
			]
		}
	],
	"nodes":[
		{
			"camera":0,
			"name":"Camera",
			"rotation":[
				0.24929291009902954,
				0.5317299365997314,
				0.7278098464012146,
				0.3541314899921417
			],
			"translation":[
				11.140581130981445,
				9.300552368164062,
				5.720418930053711
			]
		},
		{
			"mesh":0,
			"name":"Cone"
		},
		{
			"mesh":1,
			"name":"Cone.001"
		},
		{
			"mesh":2,
			"name":"Cone.002"
		},
		{
			"mesh":3,
			"name":"Cylinder"
		},
		{
			"mesh":4,
			"name":"Cylinder.001"
		},
		{
			"mesh":5,
			"name":"Cylinder.002"
		}
	],
	"cameras":[
		{
			"name":"Camera",
			"perspective":{
				"aspectRatio":1.7777777777777777,
				"yfov":0.39959648408210363,
				"zfar":1000,
				"znear":0.10000000149011612
			},
			"type":"perspective"
		}
	],
	"materials":[
		{
			"doubleSided":true,
			"name":"Material.001",
			"pbrMetallicRoughness":{
				"baseColorFactor":[
					0,
					0.0049779401160776615,
					0.8001194596290588,
					1
				],
				"metallicFactor":0,
				"roughnessFactor":0.5
			}
		},
		{
			"doubleSided":true,
			"name":"Material.002",
			"pbrMetallicRoughness":{
				"baseColorFactor":[
					0,
					0.8001416921615601,
					0.0129159614443779,
					1
				],
				"metallicFactor":0,
				"roughnessFactor":0.5
			}
		},
		{
			"doubleSided":true,
			"name":"Material",
			"pbrMetallicRoughness":{
				"baseColorFactor":[
					0.8002997636795044,
					0,
					0.006512512918561697,
					1
				],
				"metallicFactor":0,
				"roughnessFactor":0.5
			}
		}
	],
	"meshes":[
		{
			"name":"Cone",
			"primitives":[
				{
					"attributes":{
						"POSITION":0,
						"NORMAL":1,
						"TEXCOORD_0":2
					},
					"indices":3,
					"material":0
				}
			]
		},
		{
			"name":"Cone.001",
			"primitives":[
				{
					"attributes":{
						"POSITION":4,
						"NORMAL":5,
						"TEXCOORD_0":6
					},
					"indices":7,
					"material":1
				}
			]
		},
		{
			"name":"Cone.002",
			"primitives":[
				{
					"attributes":{
						"POSITION":8,
						"NORMAL":9,
						"TEXCOORD_0":10
					},
					"indices":11,
					"material":2
				}
			]
		},
		{
			"name":"Cylinder",
			"primitives":[
				{
					"attributes":{
						"POSITION":12,
						"NORMAL":13,
						"TEXCOORD_0":14
					},
					"indices":15,
					"material":0
				}
			]
		},
		{
			"name":"Cylinder.001",
			"primitives":[
				{
					"attributes":{
						"POSITION":16,
						"NORMAL":17,
						"TEXCOORD_0":18
					},
					"indices":19,
					"material":1
				}
			]
		},
		{
			"name":"Cylinder.002",
			"primitives":[
				{
					"attributes":{
						"POSITION":20,
						"NORMAL":21,
						"TEXCOORD_0":22
					},
					"indices":23,
					"material":2
				}
			]
		}
	],
	"accessors":[
		{
			"bufferView":0,
			"componentType":5126,
			"count":128,
			"max":[
				0.45460519194602966,
				0.45460519194602966,
				3.857675552368164
			],
			"min":[
				-0.45460519194602966,
				-0.45460519194602966,
				2.42781400680542
			],
			"type":"VEC3"
		},
		{
			"bufferView":1,
			"componentType":5126,
			"count":128,
			"type":"VEC3"
		},
		{
			"bufferView":2,
			"componentType":5126,
			"count":128,
			"type":"VEC2"
		},
		{
			"bufferView":3,
			"componentType":5123,
			"count":186,
			"type":"SCALAR"
		},
		{
			"bufferView":4,
			"componentType":5126,
			"count":128,
			"max":[
				0.45460519194602966,
				3.3103857040405273,
				0.513344407081604
			],
			"min":[
				-0.45460519194602966,
				1.8805211782455444,
				-0.3958659768104553
			],
			"type":"VEC3"
		},
		{
			"bufferView":5,
			"componentType":5126,
			"count":128,
			"type":"VEC3"
		},
		{
			"bufferView":6,
			"componentType":5126,
			"count":128,
			"type":"VEC2"
		},
		{
			"bufferView":7,
			"componentType":5123,
			"count":186,
			"type":"SCALAR"
		},
		{
			"bufferView":8,
			"componentType":5126,
			"count":128,
			"max":[
				3.449563980102539,
				0.4542692303657532,
				0.513344407081604
			],
			"min":[
				2.019698143005371,
				-0.45494115352630615,
				-0.3958659768104553
			],
			"type":"VEC3"
		},
		{
			"bufferView":9,
			"componentType":5126,
			"count":128,
			"type":"VEC3"
		},
		{
			"bufferView":10,
			"componentType":5126,
			"count":128,
			"type":"VEC2"
		},
		{
			"bufferView":11,
			"componentType":5123,
			"count":186,
			"type":"SCALAR"
		},
		{
			"bufferView":12,
			"componentType":5126,
			"count":192,
			"max":[
				0.3189476728439331,
				0.3189476728439331,
				2.5117337703704834
			],
			"min":[
				-0.3189476728439331,
				-0.3189476728439331,
				0.5117337703704834
			],
			"type":"VEC3"
		},
		{
			"bufferView":13,
			"componentType":5126,
			"count":192,
			"type":"VEC3"
		},
		{
			"bufferView":14,
			"componentType":5126,
			"count":192,
			"type":"VEC2"
		},
		{
			"bufferView":15,
			"componentType":5123,
			"count":372,
			"type":"SCALAR"
		},
		{
			"bufferView":16,
			"componentType":5126,
			"count":192,
			"max":[
				0.3189476728439331,
				1.9644464254379272,
				0.37770092487335205
			],
			"min":[
				-0.3189476728439331,
				-0.035558342933654785,
				-0.26020920276641846
			],
			"type":"VEC3"
		},
		{
			"bufferView":17,
			"componentType":5126,
			"count":192,
			"type":"VEC3"
		},
		{
			"bufferView":18,
			"componentType":5126,
			"count":192,
			"type":"VEC2"
		},
		{
			"bufferView":19,
			"componentType":5123,
			"count":372,
			"type":"SCALAR"
		},
		{
			"bufferView":20,
			"componentType":5126,
			"count":192,
			"max":[
				2.103625535964966,
				0.3186259865760803,
				0.37770092487335205
			],
			"min":[
				0.10361886024475098,
				-0.3192841410636902,
				-0.26020920276641846
			],
			"type":"VEC3"
		},
		{
			"bufferView":21,
			"componentType":5126,
			"count":192,
			"type":"VEC3"
		},
		{
			"bufferView":22,
			"componentType":5126,
			"count":192,
			"type":"VEC2"
		},
		{
			"bufferView":23,
			"componentType":5123,
			"count":372,
			"type":"SCALAR"
		}
	],
	"bufferViews":[
		{
			"buffer":0,
			"byteLength":1536,
			"byteOffset":0,
			"target":34962
		},
		{
			"buffer":0,
			"byteLength":1536,
			"byteOffset":1536,
			"target":34962
		},
		{
			"buffer":0,
			"byteLength":1024,
			"byteOffset":3072,
			"target":34962
		},
		{
			"buffer":0,
			"byteLength":372,
			"byteOffset":4096,
			"target":34963
		},
		{
			"buffer":0,
			"byteLength":1536,
			"byteOffset":4468,
			"target":34962
		},
		{
			"buffer":0,
			"byteLength":1536,
			"byteOffset":6004,
			"target":34962
		},
		{
			"buffer":0,
			"byteLength":1024,
			"byteOffset":7540,
			"target":34962
		},
		{
			"buffer":0,
			"byteLength":372,
			"byteOffset":8564,
			"target":34963
		},
		{
			"buffer":0,
			"byteLength":1536,
			"byteOffset":8936,
			"target":34962
		},
		{
			"buffer":0,
			"byteLength":1536,
			"byteOffset":10472,
			"target":34962
		},
		{
			"buffer":0,
			"byteLength":1024,
			"byteOffset":12008,
			"target":34962
		},
		{
			"buffer":0,
			"byteLength":372,
			"byteOffset":13032,
			"target":34963
		},
		{
			"buffer":0,
			"byteLength":2304,
			"byteOffset":13404,
			"target":34962
		},
		{
			"buffer":0,
			"byteLength":2304,
			"byteOffset":15708,
			"target":34962
		},
		{
			"buffer":0,
			"byteLength":1536,
			"byteOffset":18012,
			"target":34962
		},
		{
			"buffer":0,
			"byteLength":744,
			"byteOffset":19548,
			"target":34963
		},
		{
			"buffer":0,
			"byteLength":2304,
			"byteOffset":20292,
			"target":34962
		},
		{
			"buffer":0,
			"byteLength":2304,
			"byteOffset":22596,
			"target":34962
		},
		{
			"buffer":0,
			"byteLength":1536,
			"byteOffset":24900,
			"target":34962
		},
		{
			"buffer":0,
			"byteLength":744,
			"byteOffset":26436,
			"target":34963
		},
		{
			"buffer":0,
			"byteLength":2304,
			"byteOffset":27180,
			"target":34962
		},
		{
			"buffer":0,
			"byteLength":2304,
			"byteOffset":29484,
			"target":34962
		},
		{
			"buffer":0,
			"byteLength":1536,
			"byteOffset":31788,
			"target":34962
		},
		{
			"buffer":0,
			"byteLength":744,
			"byteOffset":33324,
			"target":34963
		}
	],
	"buffers":[
		{
			"byteLength":34068,
			"uri":"axes.bin"
		}
	]
}
