{
	"asset":{
		"generator":"Khronos glTF Blender I/O v4.2.57",
		"version":"2.0"
	},
	"scene":0,
	"scenes":[
		{
			"name":"Scene",
			"nodes":[
				0,
				1
			]
		}
	],
	"nodes":[
		{
			"camera":0,
			"name":"Camera",
			"rotation":[
				-0.10504363477230072,
				-0.34075674414634705,
				-0.03834562003612518,
				0.933477520942688
			],
			"translation":[
				-77.26943969726562,
				49.90447235107422,
				87.37255859375
			]
		},
		{
			"mesh":0,
			"name":"Cube"
		}
	],
	"cameras":[
		{
			"name":"Camera",
			"perspective":{
				"aspectRatio":1.7777777777777777,
				"yfov":0.39959648408210363,
				"zfar":1000,
				"znear":0.10000000149011612
			},
			"type":"perspective"
		}
	],
	"materials":[
		{
			"doubleSided":true,
			"name":"ShelfMaterial",
			"pbrMetallicRoughness":{
				"baseColorFactor":[
					0.21203991770744324,
					0.12351107597351074,
					0.061959438025951385,
					1
				],
				"metallicFactor":0,
				"roughnessFactor":0.5
			}
		},
		{
			"doubleSided":true,
			"name":"BookMaterial",
			"pbrMetallicRoughness":{
				"metallicFactor":0,
				"roughnessFactor":0.5
			}
		}
	],
	"meshes":[
		{
			"name":"Cube",
			"primitives":[
				{
					"attributes":{
						"POSITION":0,
						"NORMAL":1,
						"TEXCOORD_0":2,
						"COLOR_0":3
					},
					"indices":4,
					"material":0
				},
				{
					"attributes":{
						"POSITION":0,
						"NORMAL":1,
						"TEXCOORD_0":2,
						"COLOR_0":3
					},
					"indices":5,
					"material":1
				}
			]
		}
	],
	"accessors":[
		{
			"bufferView":0,
			"componentType":5126,
			"count":12258,
			"max":[
				16.24954605102539,
				40.76735305786133,
				-0.23921680450439453
			],
			"min":[
				-7.820816993713379,
				-5.132129669189453,
				-7.629788398742676
			],
			"type":"VEC3"
		},
		{
			"bufferView":1,
			"componentType":5126,
			"count":12258,
			"type":"VEC3"
		},
		{
			"bufferView":2,
			"componentType":5126,
			"count":12258,
			"type":"VEC2"
		},
		{
			"bufferView":3,
			"componentType":5126,
			"count":12258,
			"type":"VEC3"
		},
		{
			"bufferView":4,
			"componentType":5123,
			"count":288,
			"type":"SCALAR"
		},
		{
			"bufferView":5,
			"componentType":5123,
			"count":39480,
			"type":"SCALAR"
		}
	],
	"bufferViews":[
		{
			"buffer":0,
			"byteLength":147096,
			"byteOffset":0,
			"target":34962
		},
		{
			"buffer":0,
			"byteLength":147096,
			"byteOffset":147096,
			"target":34962
		},
		{
			"buffer":0,
			"byteLength":98064,
			"byteOffset":294192,
			"target":34962
		},
		{
			"buffer":0,
			"byteLength":147096,
			"byteOffset":392256,
			"target":34962
		},
		{
			"buffer":0,
			"byteLength":576,
			"byteOffset":539352,
			"target":34963
		},
		{
			"buffer":0,
			"byteLength":78960,
			"byteOffset":539928,
			"target":34963
		}
	],
	"buffers":[
		{
			"byteLength":618888,
			"uri":"book2.bin"
		}
	]
}
