{
	"asset":{
		"generator":"Khronos glTF Blender I/O v4.2.57",
		"version":"2.0"
	},
	"scene":0,
	"scenes":[
		{
			"name":"Scene",
			"nodes":[
				0,
				1,
				2,
				3,
				4
			]
		}
	],
	"nodes":[
		{
			"mesh":0,
			"name":"Sphere"
		},
		{
			"mesh":1,
			"name":"Sphere.001"
		},
		{
			"mesh":2,
			"name":"Cube"
		},
		{
			"camera":0,
			"name":"Camera",
			"rotation":[
				-0.05719120427966118,
				-0.10964570939540863,
				-0.0063194045796990395,
				0.9923039078712463
			],
			"translation":[
				-36.42576599121094,
				19.29575538635254,
				162.8158416748047
			]
		},
		{
			"name":"Empty"
		}
	],
	"cameras":[
		{
			"name":"Camera.001",
			"perspective":{
				"aspectRatio":1.7777777777777777,
				"yfov":0.4038851836174663,
				"zfar":1500,
				"znear":0.10000000149011612
			},
			"type":"perspective"
		}
	],
	"materials":[
		{
			"doubleSided":true,
			"name":"Material",
			"pbrMetallicRoughness":{
				"baseColorFactor":[
					0.8004403114318848,
					0.005748108495026827,
					0,
					1
				],
				"metallicFactor":0,
				"roughnessFactor":0.5
			}
		},
		{
			"doubleSided":true,
			"name":"Material.002",
			"pbrMetallicRoughness":{
				"baseColorFactor":[
					0.003621574491262436,
					0.8005832433700562,
					0.0002723058860283345,
					1
				],
				"metallicFactor":0,
				"roughnessFactor":0.5
			}
		},
		{
			"doubleSided":true,
			"name":"Material.001",
			"pbrMetallicRoughness":{
				"baseColorFactor":[
					0.013318297453224659,
					0.036824800074100494,
					0.8003387451171875,
					1
				],
				"metallicFactor":0,
				"roughnessFactor":0.5
			}
		}
	],
	"meshes":[
		{
			"name":"Sphere",
			"primitives":[
				{
					"attributes":{
						"POSITION":0,
						"NORMAL":1,
						"TEXCOORD_0":2
					},
					"indices":3,
					"material":0
				}
			]
		},
		{
			"name":"Sphere.001",
			"primitives":[
				{
					"attributes":{
						"POSITION":4,
						"NORMAL":5,
						"TEXCOORD_0":6
					},
					"indices":7,
					"material":1
				}
			]
		},
		{
			"name":"Cube.001",
			"primitives":[
				{
					"attributes":{
						"POSITION":8,
						"NORMAL":9,
						"TEXCOORD_0":10
					},
					"indices":11,
					"material":2
				}
			]
		}
	],
	"accessors":[
		{
			"bufferView":0,
			"componentType":5126,
			"count":1984,
			"max":[
				20.238370895385742,
				20.23837661743164,
				20.23836326599121
			],
			"min":[
				-20.238357543945312,
				-20.23837661743164,
				-20.23837661743164
			],
			"type":"VEC3"
		},
		{
			"bufferView":1,
			"componentType":5126,
			"count":1984,
			"type":"VEC3"
		},
		{
			"bufferView":2,
			"componentType":5126,
			"count":1984,
			"type":"VEC2"
		},
		{
			"bufferView":3,
			"componentType":5123,
			"count":2880,
			"type":"SCALAR"
		},
		{
			"bufferView":4,
			"componentType":5126,
			"count":30141,
			"max":[
				260.09588623046875,
				-19.71795654296875,
				255.64019775390625
			],
			"min":[
				-258.8137512207031,
				-529.0737915039062,
				-253.83741760253906
			],
			"type":"VEC3"
		},
		{
			"bufferView":5,
			"componentType":5126,
			"count":30141,
			"type":"VEC3"
		},
		{
			"bufferView":6,
			"componentType":5126,
			"count":30141,
			"type":"VEC2"
		},
		{
			"bufferView":7,
			"componentType":5123,
			"count":48216,
			"type":"SCALAR"
		},
		{
			"bufferView":8,
			"componentType":5126,
			"count":24,
			"max":[
				38.171382904052734,
				-0.9750809669494629,
				32.64350891113281
			],
			"min":[
				24.15921974182129,
				-14.987245559692383,
				18.631343841552734
			],
			"type":"VEC3"
		},
		{
			"bufferView":9,
			"componentType":5126,
			"count":24,
			"type":"VEC3"
		},
		{
			"bufferView":10,
			"componentType":5126,
			"count":24,
			"type":"VEC2"
		},
		{
			"bufferView":11,
			"componentType":5123,
			"count":36,
			"type":"SCALAR"
		}
	],
	"bufferViews":[
		{
			"buffer":0,
			"byteLength":23808,
			"byteOffset":0,
			"target":34962
		},
		{
			"buffer":0,
			"byteLength":23808,
			"byteOffset":23808,
			"target":34962
		},
		{
			"buffer":0,
			"byteLength":15872,
			"byteOffset":47616,
			"target":34962
		},
		{
			"buffer":0,
			"byteLength":5760,
			"byteOffset":63488,
			"target":34963
		},
		{
			"buffer":0,
			"byteLength":361692,
			"byteOffset":69248,
			"target":34962
		},
		{
			"buffer":0,
			"byteLength":361692,
			"byteOffset":430940,
			"target":34962
		},
		{
			"buffer":0,
			"byteLength":241128,
			"byteOffset":792632,
			"target":34962
		},
		{
			"buffer":0,
			"byteLength":96432,
			"byteOffset":1033760,
			"target":34963
		},
		{
			"buffer":0,
			"byteLength":288,
			"byteOffset":1130192,
			"target":34962
		},
		{
			"buffer":0,
			"byteLength":288,
			"byteOffset":1130480,
			"target":34962
		},
		{
			"buffer":0,
			"byteLength":192,
			"byteOffset":1130768,
			"target":34962
		},
		{
			"buffer":0,
			"byteLength":72,
			"byteOffset":1130960,
			"target":34963
		}
	],
	"buffers":[
		{
			"byteLength":1131032,
			"uri":"weird%20cube.bin"
		}
	]
}
